<svg xmlns="http://www.w3.org/2000/svg" viewBox="0 0 63.41 75.42">
  <defs>
    <style>.cls-1{fill:#233f77;}.cls-2{fill:#122439;}.cls-3{fill:#ff2a2a;}.cls-4{fill:#ffc708;}.cls-5{fill:#6ecc33;}</style>
  </defs>
  <title>WSA Graphic Only</title>
  <g id="Layer_2" data-name="Layer 2">
    <g id="Layer_1-2" data-name="Layer 1">
      <path class="cls-1" d="M62.43,20.22a1.11,1.11,0,0,1,1,1.07V56.66a1.1,1.1,0,0,1-.53.93l-13.83,8a1.07,1.07,0,0,1-1.6-.92V55.14a1.64,1.64,0,0,1,.65-1.2,6.2,6.2,0,0,0,2.56-4.69c0-2.32-1.85-3.55-4.17-2.8A6.24,6.24,0,0,0,42.34,52a2.8,2.8,0,0,0,2.54,3,.72.72,0,0,1,.66.75V67a1.11,1.11,0,0,1-.54.93L32.24,75.29a1.16,1.16,0,0,1-.54.13V37.75L61.81,20.37a1.21,1.21,0,0,1,.62-.15Z"/>
      <path class="cls-2" d="M1,20.22a1.11,1.11,0,0,0-1,1.07V56.66a1.09,1.09,0,0,0,.52.93l13.83,8a1.09,1.09,0,0,0,1.08,0,1.07,1.07,0,0,0,.52-.92V55.14a1.61,1.61,0,0,0-.65-1.2,6.23,6.23,0,0,1-2.56-4.69c0-2.32,1.86-3.55,4.17-2.8A6.24,6.24,0,0,1,21.07,52a2.8,2.8,0,0,1-2.55,3,.73.73,0,0,0-.66.75V67a1.11,1.11,0,0,0,.54.93l12.77,7.38a1.11,1.11,0,0,0,.54.13V37.75L1.59,20.37A1.18,1.18,0,0,0,1,20.22Z"/>
      <path class="cls-3" d="M31.79,0a4.77,4.77,0,0,0-2.18.66L7,14a4.07,4.07,0,0,0-1.27,6,5,5,0,0,0,6.52,1.39L34.87,8.05a4.07,4.07,0,0,0,1.28-6A5,5,0,0,0,31.79,0Z"/>
      <path class="cls-4" d="M43,6.34A4.74,4.74,0,0,0,40.8,7L18.23,20.34a4.08,4.08,0,0,0-1.27,6,5,5,0,0,0,6.53,1.39L46.07,14.38a4.08,4.08,0,0,0,1.26-6,5,5,0,0,0-4.35-2Z"/>
      <path class="cls-5" d="M53.82,12.6a4.86,4.86,0,0,0-2.17.66L29.06,26.61a4.08,4.08,0,0,0-1.27,6A5,5,0,0,0,34.32,34L56.9,20.63a4.06,4.06,0,0,0,1.27-6,5,5,0,0,0-4.35-2.05Z"/>
    </g>
  </g>
</svg>
